<svg xmlns="http://www.w3.org/2000/svg" width="46" height="28" viewBox="0 0 46 28"><defs><style>.a3{fill:#3b99fc;}</style></defs><g transform="translate(-0.038 -0.34)"><g transform="translate(0.038 0.34)"><path class="a3" d="M9.455,5.811a19.6,19.6,0,0,1,27.166,0l.9.878a.916.916,0,0,1,0,1.321l-3.088,3a.49.49,0,0,1-.679,0L32.514,9.8a13.672,13.672,0,0,0-18.951,0L12.232,11.1a.49.49,0,0,1-.679,0l-3.088-3a.916.916,0,0,1,0-1.321Zm33.553,6.211,2.749,2.673a.916.916,0,0,1,0,1.321L33.362,28.067a.98.98,0,0,1-1.358,0h0l-8.8-8.553a.245.245,0,0,0-.34,0h0l-8.8,8.553a.98.98,0,0,1-1.358,0h0L.319,16.015a.916.916,0,0,1,0-1.321l2.749-2.673a.98.98,0,0,1,1.358,0l8.8,8.553a.245.245,0,0,0,.34,0h0l8.8-8.553a.98.98,0,0,1,1.358,0h0l8.8,8.554a.245.245,0,0,0,.34,0l8.8-8.553A.98.98,0,0,1,43.008,12.021Z" transform="translate(-0.038 -0.34)"/></g></g></svg>